<svg xmlns="http://www.w3.org/2000/svg" width="1552" height="959" viewBox="0 0 1552 959">
  <g id="Gruppe_162" data-name="Gruppe 162" transform="translate(-98 -484)">
    <g id="Gruppe_150" data-name="Gruppe 150" transform="translate(-7894 401)">
      <g id="Ellipse_49" data-name="Ellipse 49" transform="translate(8009 440)" fill="rgba(114,192,230,0.08)" stroke="rgba(114,192,230,0.24)" stroke-width="2">
        <circle cx="5" cy="5" r="5" stroke="none"/>
        <circle cx="5" cy="5" r="4" fill="none"/>
      </g>
      <g id="Ellipse_56" data-name="Ellipse 56" transform="translate(8085 416)" fill="rgba(114,192,230,0.08)" stroke="rgba(114,192,230,0.24)" stroke-width="2">
        <circle cx="5" cy="5" r="5" stroke="none"/>
        <circle cx="5" cy="5" r="4" fill="none"/>
      </g>
      <g id="Ellipse_50" data-name="Ellipse 50" transform="translate(8019 454)" fill="rgba(114,192,230,0.08)" stroke="rgba(114,192,230,0.24)" stroke-width="2">
        <circle cx="2.5" cy="2.5" r="2.5" stroke="none"/>
        <circle cx="2.5" cy="2.5" r="1.5" fill="none"/>
      </g>
      <g id="Ellipse_55" data-name="Ellipse 55" transform="translate(8095 430)" fill="rgba(114,192,230,0.08)" stroke="rgba(114,192,230,0.24)" stroke-width="2">
        <circle cx="2.5" cy="2.5" r="2.5" stroke="none"/>
        <circle cx="2.5" cy="2.5" r="1.5" fill="none"/>
      </g>
      <g id="Ellipse_54" data-name="Ellipse 54" transform="translate(8036 423)" fill="rgba(114,192,230,0.08)" stroke="rgba(114,192,230,0.24)" stroke-width="2">
        <circle cx="2.5" cy="2.5" r="2.5" stroke="none"/>
        <circle cx="2.5" cy="2.5" r="1.5" fill="none"/>
      </g>
      <g id="Ellipse_52" data-name="Ellipse 52" transform="translate(8019 425)" fill="rgba(114,192,230,0.08)" stroke="rgba(114,192,230,0.24)" stroke-width="2">
        <circle cx="4.5" cy="4.5" r="4.5" stroke="none"/>
        <circle cx="4.5" cy="4.5" r="3.5" fill="none"/>
      </g>
      <g id="Ellipse_53" data-name="Ellipse 53" transform="translate(8000 402)" fill="rgba(114,192,230,0.08)" stroke="rgba(114,192,230,0.24)" stroke-width="2">
        <circle cx="9.5" cy="9.5" r="9.5" stroke="none"/>
        <circle cx="9.5" cy="9.5" r="8.5" fill="none"/>
      </g>
      <g id="Ellipse_58" data-name="Ellipse 58" transform="translate(8032 387)" fill="rgba(114,192,230,0.08)" stroke="rgba(114,192,230,0.24)" stroke-width="2">
        <circle cx="9.5" cy="9.5" r="9.5" stroke="none"/>
        <circle cx="9.5" cy="9.5" r="8.5" fill="none"/>
      </g>
      <g id="Ellipse_51" data-name="Ellipse 51" transform="translate(8000 448)" fill="rgba(114,192,230,0.08)" stroke="rgba(114,192,230,0.24)" stroke-width="2">
        <circle cx="2.5" cy="2.5" r="2.5" stroke="none"/>
        <circle cx="2.5" cy="2.5" r="1.5" fill="none"/>
      </g>
      <g id="Ellipse_59" data-name="Ellipse 59" transform="translate(7992 418)" fill="rgba(114,192,230,0.08)" stroke="rgba(114,192,230,0.24)" stroke-width="2">
        <circle cx="2.5" cy="2.5" r="2.5" stroke="none"/>
        <circle cx="2.5" cy="2.5" r="1.5" fill="none"/>
      </g>
      <g id="Ellipse_57" data-name="Ellipse 57" transform="translate(8098 420)" fill="rgba(114,192,230,0.08)" stroke="rgba(114,192,230,0.24)" stroke-width="2">
        <circle cx="2.5" cy="2.5" r="2.5" stroke="none"/>
        <circle cx="2.5" cy="2.5" r="1.5" fill="none"/>
      </g>
    </g>
    <g id="Gruppe_152" data-name="Gruppe 152" transform="translate(-7369 97)">
      <g id="Ellipse_49-2" data-name="Ellipse 49" transform="translate(8009 440)" fill="rgba(114,192,230,0.08)" stroke="rgba(114,192,230,0.24)" stroke-width="2">
        <circle cx="5" cy="5" r="5" stroke="none"/>
        <circle cx="5" cy="5" r="4" fill="none"/>
      </g>
      <g id="Ellipse_56-2" data-name="Ellipse 56" transform="translate(8085 416)" fill="rgba(114,192,230,0.08)" stroke="rgba(114,192,230,0.24)" stroke-width="2">
        <circle cx="5" cy="5" r="5" stroke="none"/>
        <circle cx="5" cy="5" r="4" fill="none"/>
      </g>
      <g id="Ellipse_50-2" data-name="Ellipse 50" transform="translate(8019 454)" fill="rgba(114,192,230,0.08)" stroke="rgba(114,192,230,0.24)" stroke-width="2">
        <circle cx="2.5" cy="2.5" r="2.5" stroke="none"/>
        <circle cx="2.5" cy="2.5" r="1.5" fill="none"/>
      </g>
      <g id="Ellipse_55-2" data-name="Ellipse 55" transform="translate(8095 430)" fill="rgba(114,192,230,0.08)" stroke="rgba(114,192,230,0.24)" stroke-width="2">
        <circle cx="2.5" cy="2.5" r="2.5" stroke="none"/>
        <circle cx="2.5" cy="2.5" r="1.5" fill="none"/>
      </g>
      <g id="Ellipse_54-2" data-name="Ellipse 54" transform="translate(8036 423)" fill="rgba(114,192,230,0.08)" stroke="rgba(114,192,230,0.24)" stroke-width="2">
        <circle cx="2.5" cy="2.5" r="2.5" stroke="none"/>
        <circle cx="2.5" cy="2.5" r="1.5" fill="none"/>
      </g>
      <g id="Ellipse_52-2" data-name="Ellipse 52" transform="translate(8019 425)" fill="rgba(114,192,230,0.08)" stroke="rgba(114,192,230,0.24)" stroke-width="2">
        <circle cx="4.5" cy="4.5" r="4.5" stroke="none"/>
        <circle cx="4.5" cy="4.5" r="3.5" fill="none"/>
      </g>
      <g id="Ellipse_53-2" data-name="Ellipse 53" transform="translate(8000 402)" fill="rgba(114,192,230,0.08)" stroke="rgba(114,192,230,0.24)" stroke-width="2">
        <circle cx="9.5" cy="9.5" r="9.5" stroke="none"/>
        <circle cx="9.5" cy="9.5" r="8.5" fill="none"/>
      </g>
      <g id="Ellipse_58-2" data-name="Ellipse 58" transform="translate(8032 387)" fill="rgba(114,192,230,0.08)" stroke="rgba(114,192,230,0.24)" stroke-width="2">
        <circle cx="9.5" cy="9.5" r="9.5" stroke="none"/>
        <circle cx="9.5" cy="9.5" r="8.5" fill="none"/>
      </g>
      <g id="Ellipse_51-2" data-name="Ellipse 51" transform="translate(8000 448)" fill="rgba(114,192,230,0.08)" stroke="rgba(114,192,230,0.24)" stroke-width="2">
        <circle cx="2.5" cy="2.5" r="2.5" stroke="none"/>
        <circle cx="2.5" cy="2.5" r="1.5" fill="none"/>
      </g>
      <g id="Ellipse_59-2" data-name="Ellipse 59" transform="translate(7992 418)" fill="rgba(114,192,230,0.08)" stroke="rgba(114,192,230,0.24)" stroke-width="2">
        <circle cx="2.5" cy="2.5" r="2.5" stroke="none"/>
        <circle cx="2.5" cy="2.5" r="1.5" fill="none"/>
      </g>
      <g id="Ellipse_57-2" data-name="Ellipse 57" transform="translate(8098 420)" fill="rgba(114,192,230,0.08)" stroke="rgba(114,192,230,0.24)" stroke-width="2">
        <circle cx="2.5" cy="2.5" r="2.5" stroke="none"/>
        <circle cx="2.5" cy="2.5" r="1.5" fill="none"/>
      </g>
    </g>
    <g id="Gruppe_153" data-name="Gruppe 153" transform="translate(-7049 431)">
      <g id="Ellipse_49-3" data-name="Ellipse 49" transform="translate(8009 440)" fill="rgba(114,192,230,0.08)" stroke="rgba(114,192,230,0.24)" stroke-width="2">
        <circle cx="5" cy="5" r="5" stroke="none"/>
        <circle cx="5" cy="5" r="4" fill="none"/>
      </g>
      <g id="Ellipse_56-3" data-name="Ellipse 56" transform="translate(8085 416)" fill="rgba(114,192,230,0.08)" stroke="rgba(114,192,230,0.24)" stroke-width="2">
        <circle cx="5" cy="5" r="5" stroke="none"/>
        <circle cx="5" cy="5" r="4" fill="none"/>
      </g>
      <g id="Ellipse_50-3" data-name="Ellipse 50" transform="translate(8019 454)" fill="rgba(114,192,230,0.08)" stroke="rgba(114,192,230,0.24)" stroke-width="2">
        <circle cx="2.5" cy="2.5" r="2.5" stroke="none"/>
        <circle cx="2.5" cy="2.5" r="1.5" fill="none"/>
      </g>
      <g id="Ellipse_55-3" data-name="Ellipse 55" transform="translate(8095 430)" fill="rgba(114,192,230,0.08)" stroke="rgba(114,192,230,0.24)" stroke-width="2">
        <circle cx="2.5" cy="2.5" r="2.5" stroke="none"/>
        <circle cx="2.5" cy="2.5" r="1.5" fill="none"/>
      </g>
      <g id="Ellipse_54-3" data-name="Ellipse 54" transform="translate(8036 423)" fill="rgba(114,192,230,0.08)" stroke="rgba(114,192,230,0.24)" stroke-width="2">
        <circle cx="2.5" cy="2.5" r="2.5" stroke="none"/>
        <circle cx="2.5" cy="2.5" r="1.5" fill="none"/>
      </g>
      <g id="Ellipse_52-3" data-name="Ellipse 52" transform="translate(8019 425)" fill="rgba(114,192,230,0.08)" stroke="rgba(114,192,230,0.24)" stroke-width="2">
        <circle cx="4.5" cy="4.5" r="4.5" stroke="none"/>
        <circle cx="4.5" cy="4.5" r="3.5" fill="none"/>
      </g>
      <g id="Ellipse_53-3" data-name="Ellipse 53" transform="translate(8000 402)" fill="rgba(114,192,230,0.08)" stroke="rgba(114,192,230,0.24)" stroke-width="2">
        <circle cx="9.5" cy="9.5" r="9.5" stroke="none"/>
        <circle cx="9.5" cy="9.5" r="8.5" fill="none"/>
      </g>
      <g id="Ellipse_58-3" data-name="Ellipse 58" transform="translate(8032 387)" fill="rgba(114,192,230,0.08)" stroke="rgba(114,192,230,0.24)" stroke-width="2">
        <circle cx="9.5" cy="9.5" r="9.5" stroke="none"/>
        <circle cx="9.5" cy="9.5" r="8.5" fill="none"/>
      </g>
      <g id="Ellipse_51-3" data-name="Ellipse 51" transform="translate(8000 448)" fill="rgba(114,192,230,0.08)" stroke="rgba(114,192,230,0.24)" stroke-width="2">
        <circle cx="2.5" cy="2.5" r="2.5" stroke="none"/>
        <circle cx="2.5" cy="2.5" r="1.5" fill="none"/>
      </g>
      <g id="Ellipse_59-3" data-name="Ellipse 59" transform="translate(7992 418)" fill="rgba(114,192,230,0.08)" stroke="rgba(114,192,230,0.24)" stroke-width="2">
        <circle cx="2.5" cy="2.5" r="2.5" stroke="none"/>
        <circle cx="2.5" cy="2.5" r="1.5" fill="none"/>
      </g>
      <g id="Ellipse_57-3" data-name="Ellipse 57" transform="translate(8098 420)" fill="rgba(114,192,230,0.08)" stroke="rgba(114,192,230,0.24)" stroke-width="2">
        <circle cx="2.5" cy="2.5" r="2.5" stroke="none"/>
        <circle cx="2.5" cy="2.5" r="1.5" fill="none"/>
      </g>
    </g>
    <g id="Gruppe_155" data-name="Gruppe 155" transform="translate(-6453 126)">
      <g id="Ellipse_49-4" data-name="Ellipse 49" transform="translate(8009 440)" fill="rgba(114,192,230,0.08)" stroke="rgba(114,192,230,0.24)" stroke-width="2">
        <circle cx="5" cy="5" r="5" stroke="none"/>
        <circle cx="5" cy="5" r="4" fill="none"/>
      </g>
      <g id="Ellipse_56-4" data-name="Ellipse 56" transform="translate(8085 416)" fill="rgba(114,192,230,0.08)" stroke="rgba(114,192,230,0.24)" stroke-width="2">
        <circle cx="5" cy="5" r="5" stroke="none"/>
        <circle cx="5" cy="5" r="4" fill="none"/>
      </g>
      <g id="Ellipse_50-4" data-name="Ellipse 50" transform="translate(8019 454)" fill="rgba(114,192,230,0.08)" stroke="rgba(114,192,230,0.24)" stroke-width="2">
        <circle cx="2.5" cy="2.5" r="2.5" stroke="none"/>
        <circle cx="2.5" cy="2.5" r="1.5" fill="none"/>
      </g>
      <g id="Ellipse_55-4" data-name="Ellipse 55" transform="translate(8095 430)" fill="rgba(114,192,230,0.08)" stroke="rgba(114,192,230,0.24)" stroke-width="2">
        <circle cx="2.5" cy="2.5" r="2.5" stroke="none"/>
        <circle cx="2.5" cy="2.5" r="1.5" fill="none"/>
      </g>
      <g id="Ellipse_54-4" data-name="Ellipse 54" transform="translate(8036 423)" fill="rgba(114,192,230,0.08)" stroke="rgba(114,192,230,0.24)" stroke-width="2">
        <circle cx="2.5" cy="2.5" r="2.5" stroke="none"/>
        <circle cx="2.5" cy="2.5" r="1.5" fill="none"/>
      </g>
      <g id="Ellipse_52-4" data-name="Ellipse 52" transform="translate(8019 425)" fill="rgba(114,192,230,0.08)" stroke="rgba(114,192,230,0.24)" stroke-width="2">
        <circle cx="4.5" cy="4.5" r="4.5" stroke="none"/>
        <circle cx="4.5" cy="4.5" r="3.5" fill="none"/>
      </g>
      <g id="Ellipse_53-4" data-name="Ellipse 53" transform="translate(8000 402)" fill="rgba(114,192,230,0.08)" stroke="rgba(114,192,230,0.24)" stroke-width="2">
        <circle cx="9.5" cy="9.5" r="9.5" stroke="none"/>
        <circle cx="9.5" cy="9.5" r="8.5" fill="none"/>
      </g>
      <g id="Ellipse_58-4" data-name="Ellipse 58" transform="translate(8032 387)" fill="rgba(114,192,230,0.08)" stroke="rgba(114,192,230,0.24)" stroke-width="2">
        <circle cx="9.5" cy="9.5" r="9.5" stroke="none"/>
        <circle cx="9.5" cy="9.5" r="8.5" fill="none"/>
      </g>
      <g id="Ellipse_51-4" data-name="Ellipse 51" transform="translate(8000 448)" fill="rgba(114,192,230,0.08)" stroke="rgba(114,192,230,0.24)" stroke-width="2">
        <circle cx="2.5" cy="2.5" r="2.5" stroke="none"/>
        <circle cx="2.5" cy="2.5" r="1.5" fill="none"/>
      </g>
      <g id="Ellipse_59-4" data-name="Ellipse 59" transform="translate(7992 418)" fill="rgba(114,192,230,0.08)" stroke="rgba(114,192,230,0.24)" stroke-width="2">
        <circle cx="2.5" cy="2.5" r="2.5" stroke="none"/>
        <circle cx="2.5" cy="2.5" r="1.5" fill="none"/>
      </g>
      <g id="Ellipse_57-4" data-name="Ellipse 57" transform="translate(8098 420)" fill="rgba(114,192,230,0.08)" stroke="rgba(114,192,230,0.24)" stroke-width="2">
        <circle cx="2.5" cy="2.5" r="2.5" stroke="none"/>
        <circle cx="2.5" cy="2.5" r="1.5" fill="none"/>
      </g>
    </g>
    <g id="Gruppe_156" data-name="Gruppe 156" transform="translate(-6932 984)">
      <g id="Ellipse_49-5" data-name="Ellipse 49" transform="translate(8009 440)" fill="rgba(114,192,230,0.08)" stroke="rgba(114,192,230,0.24)" stroke-width="2">
        <circle cx="5" cy="5" r="5" stroke="none"/>
        <circle cx="5" cy="5" r="4" fill="none"/>
      </g>
      <g id="Ellipse_56-5" data-name="Ellipse 56" transform="translate(8085 416)" fill="rgba(114,192,230,0.08)" stroke="rgba(114,192,230,0.24)" stroke-width="2">
        <circle cx="5" cy="5" r="5" stroke="none"/>
        <circle cx="5" cy="5" r="4" fill="none"/>
      </g>
      <g id="Ellipse_50-5" data-name="Ellipse 50" transform="translate(8019 454)" fill="rgba(114,192,230,0.08)" stroke="rgba(114,192,230,0.24)" stroke-width="2">
        <circle cx="2.5" cy="2.5" r="2.5" stroke="none"/>
        <circle cx="2.5" cy="2.5" r="1.5" fill="none"/>
      </g>
      <g id="Ellipse_55-5" data-name="Ellipse 55" transform="translate(8095 430)" fill="rgba(114,192,230,0.08)" stroke="rgba(114,192,230,0.24)" stroke-width="2">
        <circle cx="2.5" cy="2.5" r="2.5" stroke="none"/>
        <circle cx="2.5" cy="2.5" r="1.5" fill="none"/>
      </g>
      <g id="Ellipse_54-5" data-name="Ellipse 54" transform="translate(8036 423)" fill="rgba(114,192,230,0.08)" stroke="rgba(114,192,230,0.24)" stroke-width="2">
        <circle cx="2.5" cy="2.5" r="2.5" stroke="none"/>
        <circle cx="2.5" cy="2.5" r="1.5" fill="none"/>
      </g>
      <g id="Ellipse_52-5" data-name="Ellipse 52" transform="translate(8019 425)" fill="rgba(114,192,230,0.08)" stroke="rgba(114,192,230,0.24)" stroke-width="2">
        <circle cx="4.5" cy="4.5" r="4.5" stroke="none"/>
        <circle cx="4.5" cy="4.5" r="3.5" fill="none"/>
      </g>
      <g id="Ellipse_53-5" data-name="Ellipse 53" transform="translate(8000 402)" fill="rgba(114,192,230,0.08)" stroke="rgba(114,192,230,0.24)" stroke-width="2">
        <circle cx="9.5" cy="9.5" r="9.5" stroke="none"/>
        <circle cx="9.5" cy="9.5" r="8.5" fill="none"/>
      </g>
      <g id="Ellipse_58-5" data-name="Ellipse 58" transform="translate(8032 387)" fill="rgba(114,192,230,0.08)" stroke="rgba(114,192,230,0.24)" stroke-width="2">
        <circle cx="9.5" cy="9.5" r="9.5" stroke="none"/>
        <circle cx="9.5" cy="9.5" r="8.5" fill="none"/>
      </g>
      <g id="Ellipse_51-5" data-name="Ellipse 51" transform="translate(8000 448)" fill="rgba(114,192,230,0.08)" stroke="rgba(114,192,230,0.24)" stroke-width="2">
        <circle cx="2.5" cy="2.5" r="2.5" stroke="none"/>
        <circle cx="2.5" cy="2.5" r="1.5" fill="none"/>
      </g>
      <g id="Ellipse_59-5" data-name="Ellipse 59" transform="translate(7992 418)" fill="rgba(114,192,230,0.08)" stroke="rgba(114,192,230,0.24)" stroke-width="2">
        <circle cx="2.5" cy="2.5" r="2.5" stroke="none"/>
        <circle cx="2.5" cy="2.5" r="1.5" fill="none"/>
      </g>
      <g id="Ellipse_57-5" data-name="Ellipse 57" transform="translate(8098 420)" fill="rgba(114,192,230,0.08)" stroke="rgba(114,192,230,0.24)" stroke-width="2">
        <circle cx="2.5" cy="2.5" r="2.5" stroke="none"/>
        <circle cx="2.5" cy="2.5" r="1.5" fill="none"/>
      </g>
    </g>
    <g id="Gruppe_157" data-name="Gruppe 157" transform="translate(-7380 721)">
      <g id="Ellipse_49-6" data-name="Ellipse 49" transform="translate(8009 440)" fill="rgba(114,192,230,0.08)" stroke="rgba(114,192,230,0.24)" stroke-width="2">
        <circle cx="5" cy="5" r="5" stroke="none"/>
        <circle cx="5" cy="5" r="4" fill="none"/>
      </g>
      <g id="Ellipse_56-6" data-name="Ellipse 56" transform="translate(8085 416)" fill="rgba(114,192,230,0.08)" stroke="rgba(114,192,230,0.24)" stroke-width="2">
        <circle cx="5" cy="5" r="5" stroke="none"/>
        <circle cx="5" cy="5" r="4" fill="none"/>
      </g>
      <g id="Ellipse_50-6" data-name="Ellipse 50" transform="translate(8019 454)" fill="rgba(114,192,230,0.08)" stroke="rgba(114,192,230,0.24)" stroke-width="2">
        <circle cx="2.5" cy="2.5" r="2.5" stroke="none"/>
        <circle cx="2.5" cy="2.5" r="1.5" fill="none"/>
      </g>
      <g id="Ellipse_55-6" data-name="Ellipse 55" transform="translate(8095 430)" fill="rgba(114,192,230,0.08)" stroke="rgba(114,192,230,0.24)" stroke-width="2">
        <circle cx="2.5" cy="2.5" r="2.5" stroke="none"/>
        <circle cx="2.5" cy="2.5" r="1.5" fill="none"/>
      </g>
      <g id="Ellipse_54-6" data-name="Ellipse 54" transform="translate(8036 423)" fill="rgba(114,192,230,0.08)" stroke="rgba(114,192,230,0.24)" stroke-width="2">
        <circle cx="2.5" cy="2.5" r="2.5" stroke="none"/>
        <circle cx="2.5" cy="2.5" r="1.5" fill="none"/>
      </g>
      <g id="Ellipse_52-6" data-name="Ellipse 52" transform="translate(8019 425)" fill="rgba(114,192,230,0.08)" stroke="rgba(114,192,230,0.24)" stroke-width="2">
        <circle cx="4.5" cy="4.5" r="4.5" stroke="none"/>
        <circle cx="4.5" cy="4.5" r="3.5" fill="none"/>
      </g>
      <g id="Ellipse_53-6" data-name="Ellipse 53" transform="translate(8000 402)" fill="rgba(114,192,230,0.08)" stroke="rgba(114,192,230,0.24)" stroke-width="2">
        <circle cx="9.5" cy="9.5" r="9.5" stroke="none"/>
        <circle cx="9.5" cy="9.5" r="8.5" fill="none"/>
      </g>
      <g id="Ellipse_58-6" data-name="Ellipse 58" transform="translate(8032 387)" fill="rgba(114,192,230,0.08)" stroke="rgba(114,192,230,0.24)" stroke-width="2">
        <circle cx="9.5" cy="9.5" r="9.5" stroke="none"/>
        <circle cx="9.5" cy="9.5" r="8.5" fill="none"/>
      </g>
      <g id="Ellipse_51-6" data-name="Ellipse 51" transform="translate(8000 448)" fill="rgba(114,192,230,0.08)" stroke="rgba(114,192,230,0.24)" stroke-width="2">
        <circle cx="2.5" cy="2.5" r="2.5" stroke="none"/>
        <circle cx="2.5" cy="2.5" r="1.5" fill="none"/>
      </g>
      <g id="Ellipse_59-6" data-name="Ellipse 59" transform="translate(7992 418)" fill="rgba(114,192,230,0.08)" stroke="rgba(114,192,230,0.24)" stroke-width="2">
        <circle cx="2.5" cy="2.5" r="2.5" stroke="none"/>
        <circle cx="2.5" cy="2.5" r="1.5" fill="none"/>
      </g>
      <g id="Ellipse_57-6" data-name="Ellipse 57" transform="translate(8098 420)" fill="rgba(114,192,230,0.08)" stroke="rgba(114,192,230,0.24)" stroke-width="2">
        <circle cx="2.5" cy="2.5" r="2.5" stroke="none"/>
        <circle cx="2.5" cy="2.5" r="1.5" fill="none"/>
      </g>
    </g>
    <g id="Gruppe_158" data-name="Gruppe 158" transform="translate(-7870 700)">
      <g id="Ellipse_49-7" data-name="Ellipse 49" transform="translate(8009 440)" fill="rgba(114,192,230,0.08)" stroke="rgba(114,192,230,0.24)" stroke-width="2">
        <circle cx="5" cy="5" r="5" stroke="none"/>
        <circle cx="5" cy="5" r="4" fill="none"/>
      </g>
      <g id="Ellipse_56-7" data-name="Ellipse 56" transform="translate(8085 416)" fill="rgba(114,192,230,0.08)" stroke="rgba(114,192,230,0.24)" stroke-width="2">
        <circle cx="5" cy="5" r="5" stroke="none"/>
        <circle cx="5" cy="5" r="4" fill="none"/>
      </g>
      <g id="Ellipse_50-7" data-name="Ellipse 50" transform="translate(8019 454)" fill="rgba(114,192,230,0.08)" stroke="rgba(114,192,230,0.24)" stroke-width="2">
        <circle cx="2.5" cy="2.5" r="2.5" stroke="none"/>
        <circle cx="2.5" cy="2.5" r="1.5" fill="none"/>
      </g>
      <g id="Ellipse_55-7" data-name="Ellipse 55" transform="translate(8095 430)" fill="rgba(114,192,230,0.08)" stroke="rgba(114,192,230,0.24)" stroke-width="2">
        <circle cx="2.5" cy="2.5" r="2.5" stroke="none"/>
        <circle cx="2.5" cy="2.5" r="1.5" fill="none"/>
      </g>
      <g id="Ellipse_54-7" data-name="Ellipse 54" transform="translate(8036 423)" fill="rgba(114,192,230,0.08)" stroke="rgba(114,192,230,0.24)" stroke-width="2">
        <circle cx="2.5" cy="2.5" r="2.5" stroke="none"/>
        <circle cx="2.5" cy="2.5" r="1.5" fill="none"/>
      </g>
      <g id="Ellipse_52-7" data-name="Ellipse 52" transform="translate(8019 425)" fill="rgba(114,192,230,0.08)" stroke="rgba(114,192,230,0.24)" stroke-width="2">
        <circle cx="4.5" cy="4.5" r="4.5" stroke="none"/>
        <circle cx="4.5" cy="4.5" r="3.5" fill="none"/>
      </g>
      <g id="Ellipse_53-7" data-name="Ellipse 53" transform="translate(8000 402)" fill="rgba(114,192,230,0.08)" stroke="rgba(114,192,230,0.24)" stroke-width="2">
        <circle cx="9.5" cy="9.5" r="9.5" stroke="none"/>
        <circle cx="9.5" cy="9.5" r="8.5" fill="none"/>
      </g>
      <g id="Ellipse_58-7" data-name="Ellipse 58" transform="translate(8032 387)" fill="rgba(114,192,230,0.08)" stroke="rgba(114,192,230,0.24)" stroke-width="2">
        <circle cx="9.5" cy="9.5" r="9.5" stroke="none"/>
        <circle cx="9.5" cy="9.5" r="8.5" fill="none"/>
      </g>
      <g id="Ellipse_51-7" data-name="Ellipse 51" transform="translate(8000 448)" fill="rgba(114,192,230,0.08)" stroke="rgba(114,192,230,0.24)" stroke-width="2">
        <circle cx="2.5" cy="2.5" r="2.5" stroke="none"/>
        <circle cx="2.5" cy="2.5" r="1.5" fill="none"/>
      </g>
      <g id="Ellipse_59-7" data-name="Ellipse 59" transform="translate(7992 418)" fill="rgba(114,192,230,0.08)" stroke="rgba(114,192,230,0.24)" stroke-width="2">
        <circle cx="2.5" cy="2.5" r="2.5" stroke="none"/>
        <circle cx="2.5" cy="2.5" r="1.5" fill="none"/>
      </g>
      <g id="Ellipse_57-7" data-name="Ellipse 57" transform="translate(8098 420)" fill="rgba(114,192,230,0.08)" stroke="rgba(114,192,230,0.24)" stroke-width="2">
        <circle cx="2.5" cy="2.5" r="2.5" stroke="none"/>
        <circle cx="2.5" cy="2.5" r="1.5" fill="none"/>
      </g>
    </g>
  </g>
</svg>
