<svg id="Gruppe_70" data-name="Gruppe 70" xmlns="http://www.w3.org/2000/svg" xmlns:xlink="http://www.w3.org/1999/xlink" width="34.053" height="45.627" viewBox="0 0 34.053 45.627">
  <defs>
    <clipPath id="clip-path">
      <path id="Pfad_17" data-name="Pfad 17" d="M0-50.07H34.053V-95.7H0Z" transform="translate(0 95.697)" fill="none"/>
    </clipPath>
  </defs>
  <g id="Gruppe_19" data-name="Gruppe 19" transform="translate(0 0)" clip-path="url(#clip-path)">
    <g id="Gruppe_18" data-name="Gruppe 18" transform="translate(0.179 0.179)">
      <path id="Pfad_16" data-name="Pfad 16" d="M-27.1-24.769a13.879,13.879,0,0,1-19.512,2.126,13.879,13.879,0,0,1-2.126-19.512A13.879,13.879,0,0,1-29.535-44.52" transform="translate(51.801 47.341)" fill="none" stroke="#0946ec" stroke-width="0.75"/>
    </g>
  </g>
  <g id="Gruppe_20" data-name="Gruppe 20" transform="translate(20.575 1.132)">
    <path id="Pfad_18" data-name="Pfad 18" d="M-.048-2.6l-.044-.355,1.75-.215L1.315-4.9l.351-.069.417,2.106Z" transform="translate(0.092 4.969)" fill="#0946ec"/>
  </g>
  <g id="Gruppe_22" data-name="Gruppe 22" transform="translate(0 0)" clip-path="url(#clip-path)">
    <g id="Gruppe_21" data-name="Gruppe 21" transform="translate(9.865 14.058)">
      <path id="Pfad_19" data-name="Pfad 19" d="M-25.438,0H-47.7a.914.914,0,0,0-.818,1.321l7.541,15.142a3.362,3.362,0,0,1,.352,1.5V29.013a.485.485,0,0,0,.753.4l6.83-4.531a1.077,1.077,0,0,0,.481-.866l.179-6.119a3.315,3.315,0,0,1,.347-1.383l7.5-15.063A1.006,1.006,0,0,0-25.438,0" transform="translate(48.618)" fill="#72c0e6"/>
    </g>
  </g>
  <g id="Gruppe_23" data-name="Gruppe 23" transform="translate(15.571 6.375)">
    <path id="Pfad_21" data-name="Pfad 21" d="M-1.036-2.85V-.961m.945-.945H-1.981m3.62-3.542v1.889M2.584-4.5H.7m0,2.9V.284m.944-.945H-.249" transform="translate(1.981 5.447)" fill="none" stroke="#0946ec" stroke-width="0.75"/>
  </g>
  <g id="Gruppe_27" data-name="Gruppe 27" transform="translate(0 0)" clip-path="url(#clip-path)">
    <g id="Gruppe_24" data-name="Gruppe 24" transform="translate(9.865 8.972)">
      <path id="Pfad_22" data-name="Pfad 22" d="M0,0,10.415,19.921V36.656" fill="none" stroke="#0946ec" stroke-width="0.75"/>
    </g>
    <g id="Gruppe_25" data-name="Gruppe 25" transform="translate(18.95 31.938)">
      <path id="Pfad_23" data-name="Pfad 23" d="M-1.57-3.139A1.43,1.43,0,0,0-.139-4.57,1.43,1.43,0,0,0-1.57-6,1.43,1.43,0,0,0-3-4.57a1.43,1.43,0,0,0,1.43,1.43" transform="translate(3 6)" fill="#f2f5fd"/>
    </g>
    <g id="Gruppe_26" data-name="Gruppe 26" transform="translate(18.95 31.938)">
      <path id="Pfad_24" data-name="Pfad 24" d="M-1.57-3.139A1.43,1.43,0,0,0-.139-4.57,1.43,1.43,0,0,0-1.57-6,1.43,1.43,0,0,0-3-4.57,1.43,1.43,0,0,0-1.57-3.139Z" transform="translate(3 6)" fill="none" stroke="#0946ec" stroke-width="0.75"/>
    </g>
  </g>
</svg>
