<svg xmlns="http://www.w3.org/2000/svg" width="227.56" height="447.903" viewBox="0 0 227.56 447.903">
  <g id="Gruppe_148" data-name="Gruppe 148" transform="translate(-8621.58 -448.5)">
    <path id="Pfad_476" data-name="Pfad 476" d="M8825.141,586.377l-18.918-39.486-31.2-16.13h-26.685l-12.2-18.617-50.176-9.956L8625.226,551.4l-11.269,34.98Z" transform="translate(7.623 -1)" fill="rgba(216,216,216,0.33)"/>
    <path id="Pfad_477" data-name="Pfad 477" d="M8732.972,586.377l-18.18-39.486-30.649-16.13h-28.073l-11.75-17.951-6.788,12.646-23.575,5.3,27.664,11.376v18.5l-17.74,10.877,3.834,14.868Z" transform="translate(99.792 -1)" fill="rgba(114,192,230,0.33)"/>
    <path id="Pfad_478" data-name="Pfad 478" d="M8597.58,586.377l4.747,64.592,43.36,177.022,17.418,49.61,51.527,3.419,10.932,13.384,39.033-20.878,17.8-129.558,42.743-127.843-17.316-29.748Z" transform="translate(24 2)" fill="rgba(114,192,230,0.33)"/>
    <path id="Pfad_479" data-name="Pfad 479" d="M8633.058,586.377l2.612,70.242-32.538,34.844,32.538,13.045,30.349,109.7-68.439,63.3,50.5,3.1,48.455-7.116,10.4-130.029,47.65-127.338L8737.9,586.377Z" transform="translate(94.552 2)" fill="rgba(114,192,230,0.33)"/>
    <g id="Gruppe_151" data-name="Gruppe 151" transform="translate(735.313 129.673)">
      <path id="Pfad_480" data-name="Pfad 480" d="M7996.11,369.76s8.062-5.7,16-1.21c4.2-3.975,15.037,1.21,15.037,1.21s-12.269-2.891-15.037,0C8008.59,366.617,7996.11,369.76,7996.11,369.76Z" transform="translate(-15.142 -19.284)" fill="rgba(114,192,230,0.72)"/>
      <path id="Pfad_481" data-name="Pfad 481" d="M7996.11,370.288s5.443-6.722,10.8-1.428c2.838-4.691,10.153,1.428,10.153,1.428s-8.284-3.411-10.153,0C8004.536,366.579,7996.11,370.288,7996.11,370.288Z" transform="translate(20.154 -35.437)" fill="rgba(114,192,230,0.72)"/>
      <path id="Pfad_482" data-name="Pfad 482" d="M7996.11,368.827s3.375-3.884,6.7-.825c1.759-2.71,6.294.825,6.294.825s-5.136-1.971-6.294,0C8001.334,366.684,7996.11,368.827,7996.11,368.827Z" transform="translate(-37.689 -48)" fill="rgba(114,192,230,0.72)"/>
    </g>
  </g>
</svg>
